# xmcd
#
# Track frame offsets: 
#        150
#        17478
#        31457
#        44057
#        60132
#        73403
#        89933
#        105168
#        119583
#        133238
#        147456
#        164671
#        181681
#        199188
#        212656
#        228181
#        242305
#
# Disc length: 3462 seconds
#
# Revision: 1
# Processed by: cddbd v1.5.2PL0 Copyright (c) Steve Scherf et al.
# Submitted via: ExactAudioCopy v1.3
#
DISCID=f60d8411
DTITLE=高胜美 - 高胜美精选4
DYEAR=2001
DGENRE=Chinese-Pop
TTITLE0=情深似海
TTITLE1=该走的时候
TTITLE2=我爱秋莲
TTITLE3=星夜的离别
TTITLE4=心声泪痕
TTITLE5=撒情网
TTITLE6=为你已陶醉
TTITLE7=我没有骗你
TTITLE8=声声慢
TTITLE9=痴痴地等
TTITLE10=为了一个你
TTITLE11=意难忘
TTITLE12=苏州河边
TTITLE13=我在思念你
TTITLE14=欺骗我的心
TTITLE15=枫叶情
TTITLE16=别让我等候
EXTD=
EXTT0=
EXTT1=
EXTT2=
EXTT3=
EXTT4=
EXTT5=
EXTT6=
EXTT7=
EXTT8=
EXTT9=
EXTT10=
EXTT11=
EXTT12=
EXTT13=
EXTT14=
EXTT15=
EXTT16=
PLAYORDER=
